#!OML:ASF E:\Steps\Project 1\Capture day 1\Session 2\Subject.ASF
:FULLY-SPECIFIED
:DEGREES
2518
root 10.0983 16.4692 4.6021 20.2963 1.53992 2.75462
lowerback -22.3004 0.153745 -2.46461
upperback 3.65584 0.678491 1.43351
thorax 16.8821 -0.0516099 3.33636
lowerneck 2.39881 0.230876 -3.86359
upperneck 31.9329 0.108994 2.1321
head 9.70748 -0.140039 1.44846
rclavicle -7.15625e-015 -4.77083e-015
rhumerus -24.5469 28.8955 -80.1915
rradius 66.6341
rwrist 3.58569
rhand -2.11969 -769.953
rfingers 7.12502
rthumb 23.5586 1001.47
lclavicle -7.15625e-015 -4.77083e-015
lhumerus -24.0462 -30.2521 54.6197
lradius 51.1964
lwrist 0.81628
lhand -21.2245 -15.3875
lfingers 7.12502
lthumb 5.15756 -345.47
rfemur -25.5838 5.02339 14.4069
rtibia 14.5836
rfoot -16.8847 -6.46437
rtoes -17.8461
lfemur -23.443 -3.84768 -20.2327
ltibia 9.40111
lfoot -5.51771 -4.8144
ltoes -34.2014
2519
root 10.0868 16.4661 4.6462 20.0984 1.65662 2.739
lowerback -22.5904 0.0761536 -2.55588
upperback 3.56612 0.607058 1.43031
thorax 16.9527 -0.0929379 3.36446
lowerneck 1.94977 0.369363 -3.81325
upperneck 32.3995 0.382059 1.90507
head 9.95925 -0.0329023 1.38633
rclavicle 1.03368e-014 1.51076e-014
rhumerus -24.9826 28.2245 -80.3195
rradius 66.5639
rwrist 3.49118
rhand -2.21161 -770.04
rfingers 7.12502
rthumb 23.4704 1001.37
lclavicle 1.03368e-014 1.51076e-014
lhumerus -23.7971 -29.5137 53.9558
lradius 51.1114
lwrist 1.14733
lhand -21.5151 -15.4569
lfingers 7.12502
lthumb 4.87696 -345.533
rfemur -25.0384 4.61458 14.6067
rtibia 14.3942
rfoot -16.975 -6.17387
rtoes -18.2522
lfemur -23.0916 -4.12378 -20.1534
ltibia 9.54057
lfoot -5.69709 -4.64675
ltoes -33.2345
2520
root 10.0737 16.4625 4.69492 19.8692 1.61747 2.61186
lowerback -22.82 0.125405 -2.59259
upperback 3.40911 0.691862 1.40766
thorax 16.8905 -0.0541448 3.39183
lowerneck 2.19158 0.421682 -3.99171
upperneck 32.6028 0.288506 2.53051
head 9.98975 -0.0380037 1.63599
rclavicle -9.54166e-015 7.95139e-015
rhumerus -25.7216 27.3896 -80.5506
rradius 66.5824
rwrist 3.33126
rhand -2.59907 -770.237
rfingers 7.12502
rthumb 23.0987 1001.13
lclavicle -9.54166e-015 7.95139e-015
lhumerus -23.5862 -28.9108 53.3927
lradius 51.0949
lwrist 1.36294
lhand -21.7702 -15.0523
lfingers 7.12502
lthumb 4.63065 -345.123
rfemur -24.4755 4.27233 14.9152
rtibia 14.1903
rfoot -16.989 -5.53014
rtoes -17.2087
lfemur -22.5903 -4.29145 -19.9929
ltibia 9.52993
lfoot -5.83795 -4.38872
ltoes -32.8198
2521
root 10.0532 16.4598 4.73376 19.7494 1.3843 2.44624
lowerback -23.0477 0.242176 -2.66757
upperback 3.22364 0.88639 1.33453
thorax 16.7831 0.0345628 3.42159
lowerneck 2.36165 0.493561 -3.81256
upperneck 32.7253 0.290577 2.81977
head 10.002 0.010327 1.709
rclavicle -4.37326e-015 -3.18055e-015
rhumerus -26.3912 26.4203 -80.7924
rradius 66.6028
rwrist 3.36538
rhand -2.75406 -770.535
rfingers 7.12502
rthumb 22.95 1000.81
lclavicle -4.37326e-015 -3.18055e-015
lhumerus -23.2711 -28.3006 52.7445
lradius 51.05
lwrist 1.63626
lhand -21.7894 -14.5561
lfingers 7.12502
lthumb 4.61217 -344.626
rfemur -24.1736 4.162 15.2286
rtibia 14.0631
rfoot -16.9293 -5.03157
rtoes -18.0399
lfemur -22.2833 -4.38193 -19.7371
ltibia 9.53641
lfoot -5.98261 -4.02025
ltoes -33.105
2522
root 10.0296 16.4553 4.7699 19.7198 1.23371 2.25706
lowerback -23.3717 0.277666 -2.7347
upperback 3.06579 0.970226 1.27447
thorax 16.7763 0.0711116 3.42561
lowerneck 2.71583 0.525131 -3.79323
upperneck 32.6204 0.214223 3.20265
head 9.89623 0.011876 1.83293
rclavicle -5.1684e-015 3.18055e-015
rhumerus -26.811 25.5338 -80.978
rradius 66.4699
rwrist 3.53704
rhand -2.63912 -770.657
rfingers 7.12502
rthumb 23.0603 1000.7
lclavicle -5.1684e-015 3.18055e-015
lhumerus -22.9221 -27.5793 52.0298
lradius 50.9486
lwrist 2.06498
lhand -21.8106 -14.3771
lfingers 7.12502
lthumb 4.59169 -344.447
rfemur -23.9212 4.13176 15.552
rtibia 13.814
rfoot -16.919 -4.69315
rtoes -19.2373
lfemur -22.1401 -4.69311 -19.376
ltibia 9.63628
lfoot -6.26315 -3.49776
ltoes -34.4062
